# xmcd
#
# Track frame offsets:
# 150
# 11565
# 37102
# 50268
# 76543
# 95119
# 107498
# 124346
# 146423
# 162667
# 188104
#
# Disc length: 2723 seconds
#
#
# Revision: 0
# Processed by: cddbd v1.5.2PL0 Copyright (c) Steve Scherf et al.
# Submitted via: FreeRIP 2.951 
#
DISCID=8d0aa10b
DTITLE=Gary moore - Power Of The Blues
DYEAR=1900
DGENRE=Blues
TTITLE0=Power of the blues
TTITLE1=There´s A Hole
TTITLE2=Tell Me Woman
TTITLE3=I Can´t Qui you Baby
TTITLE4=That´s Why I Play the Blues
TTITLE5=Evil
TTITLE6=Getaway Blues
TTITLE7=Memory Pain
TTITLE8=Can´t Find My Baby
TTITLE9=Torn Inside
TTITLE10=Don-t Let Me Be Misunderstood
EXTD=
EXTT0=
EXTT1=
EXTT2=
EXTT3=
EXTT4=
EXTT5=
EXTT6=
EXTT7=
EXTT8=
EXTT9=
EXTT10=
PLAYORDER=
